# xmcd
# 
# Track frame offsets:
#     150
#     15224
#     28996
#     41249
#     54034
#     64589
#     81916
#     92538
#     107652
#     124516
#     135929
#     149223
# 
# Disc length: 2200
# 
# Revision: 0
# Processed by: cddbd v1.5.2PL0 Copyright (c) Steve Scherf et al.
# Submitted via: fre:ac v1.0.17
# 
DISCID=9708960c
DTITLE=Lisa Stanley - Love Me a Little Bit Longer
DYEAR=0
DGENRE=Country
TTITLE0=Love Me a Little Bit Longer
TTITLE1=Home to Louisiana
TTITLE2=Room Full of Roses
TTITLE3=Who Cares?
TTITLE4=Blackboard of My Heart
TTITLE5=We've Got Tonight (with Glenn Rogers)
TTITLE6=Silver Threads and Golden Needles
TTITLE7=Let It Be
TTITLE8=Let's Make it a Good Time
TTITLE9=Losing You
TTITLE10=Every Time You Walk in the Room (with Eddie Carey)
TTITLE11=Walking in My Mother's Footsteps
EXTD=
EXTT0=
EXTT1=
EXTT2=
EXTT3=
EXTT4=
EXTT5=
EXTT6=
EXTT7=
EXTT8=
EXTT9=
EXTT10=
EXTT11=
PLAYORDER=
